<svg width="56" height="31" viewBox="0 0 56 31" fill="none" xmlns="http://www.w3.org/2000/svg">
<path fill-rule="evenodd" clip-rule="evenodd" d="M18.2429 1.25956L2.41096 11.3146C0.241062 12.6902 -0.501817 15.7416 0.752439 18.1281C2.00324 20.5145 4.77781 21.3315 6.9477 19.9521L22.7797 9.90092C24.9496 8.5253 25.6924 5.47384 24.4382 3.08739C23.1874 0.700948 20.4128 -0.116063 18.2429 1.26336V1.25956Z" fill="#EA4334"/>
<path fill-rule="evenodd" clip-rule="evenodd" d="M22.6347 21.4458L6.80271 11.3946C4.63282 10.019 1.86171 10.836 0.60745 13.2187C-0.643351 15.6051 0.0995276 18.6528 2.26597 20.0322L18.0979 30.0834C20.2678 31.459 23.0389 30.642 24.2932 28.2594C25.544 25.8729 24.8011 22.8253 22.6347 21.4458Z" fill="#4285F4"/>
<path fill-rule="evenodd" clip-rule="evenodd" d="M33.2214 21.605L49.0534 11.5538C51.2233 10.1782 53.9944 10.9952 55.2486 13.3778C56.4994 15.7643 55.7566 18.812 53.5901 20.1914L37.7582 30.2426C35.5883 31.6182 32.8171 30.8012 31.5629 28.4185C30.3121 26.0321 31.055 22.9844 33.2214 21.605Z" fill="#FCBC05"/>
<path fill-rule="evenodd" clip-rule="evenodd" d="M37.8996 1.41961L53.7316 11.4708C55.9015 12.8464 56.6443 15.8979 55.3901 18.2843C54.1393 20.6708 51.3647 21.4878 49.1948 20.1084L33.3629 10.0572C31.193 8.68155 30.4501 5.63009 31.7043 3.24365C32.9551 0.857202 35.7297 0.0401857 37.8996 1.41961Z" fill="#0D9D58"/>
</svg>
