<svg width="25" height="25" viewBox="0 0 25 25" fill="none" xmlns="http://www.w3.org/2000/svg">
<path d="M13.25 21.7803C12.6287 21.7803 12.125 22.284 12.125 22.9053C12.125 23.5266 12.6287 24.0303 13.25 24.0303H22.25C23.6997 24.0303 24.875 22.855 24.875 21.4053V3.40527C24.875 1.95553 23.6997 0.780273 22.25 0.780273H13.25C12.6287 0.780273 12.125 1.28396 12.125 1.90527C12.125 2.52659 12.6287 3.03027 13.25 3.03027L22.25 3.03027C22.4571 3.03027 22.625 3.19817 22.625 3.40527L22.625 21.4053C22.625 21.6124 22.4571 21.7803 22.25 21.7803H13.25Z" fill="#EA4334"/>
<path fill-rule="evenodd" clip-rule="evenodd" d="M17.0046 15.9531C18.0402 15.9531 18.8796 15.1136 18.8796 14.0781V10.7173C18.8796 9.6818 18.0401 8.84233 17.0046 8.84233H10.0857C10.0759 8.73219 10.0657 8.62208 10.055 8.512L9.97395 7.67818C9.85031 6.40601 8.4994 5.64414 7.34677 6.19653C4.89543 7.37133 2.67627 8.97895 0.796033 10.9421L0.647234 11.0974C-0.0490777 11.8244 -0.0490777 12.971 0.647232 13.698L0.796033 13.8533C2.67627 15.8165 4.89543 17.4241 7.34677 18.5989C8.4994 19.1513 9.85031 18.3894 9.97395 17.1172L10.055 16.2834C10.0657 16.1733 10.0759 16.0632 10.0857 15.9531H17.0046ZM9.04266 13.7031C8.64311 13.7031 8.28989 13.912 8.09013 14.2292C7.99284 14.3837 7.93195 14.5639 7.91984 14.7581C7.89263 15.1944 7.85786 15.6303 7.81555 16.0658L7.79202 16.3078C6.23795 15.5069 4.79475 14.5095 3.49757 13.3411C3.16103 13.038 2.83433 12.7234 2.51807 12.3977C4.05337 10.8166 5.83477 9.49631 7.79202 8.48764L7.81555 8.72966C7.85786 9.16507 7.89263 9.60104 7.91984 10.0374C7.95683 10.6303 8.44853 11.0923 9.04266 11.0923H16.6296V13.7031H9.04266Z" fill="#EA4334"/>
</svg>
