<svg width="24" height="24" viewBox="0 0 24 24" fill="none" xmlns="http://www.w3.org/2000/svg">
<path d="M8.46967 8.46948C8.76256 8.17658 9.23744 8.17658 9.53033 8.46948L12 10.9392L14.4697 8.46949C14.7626 8.17659 15.2374 8.17659 15.5303 8.46949C15.8232 8.76238 15.8232 9.23725 15.5303 9.53015L13.0607 11.9998L15.5303 14.4695C15.8232 14.7624 15.8232 15.2372 15.5303 15.5301C15.2374 15.823 14.7626 15.823 14.4697 15.5301L12 13.0605L9.53034 15.5301C9.23744 15.823 8.76257 15.823 8.46968 15.5301C8.17678 15.2373 8.17678 14.7624 8.46968 14.4695L10.9393 11.9998L8.46967 9.53014C8.17678 9.23725 8.17678 8.76237 8.46967 8.46948Z" fill="#EA4334"/>
<path fill-rule="evenodd" clip-rule="evenodd" d="M7.31673 3.76858C10.4043 3.4235 13.5957 3.4235 16.6832 3.76858C18.5096 3.9727 19.9845 5.41134 20.1994 7.2483C20.5686 10.4052 20.5686 13.5944 20.1994 16.7513C19.9845 18.5883 18.5096 20.0269 16.6832 20.2311C13.5957 20.5761 10.4043 20.5761 7.31673 20.2311C5.49035 20.0269 4.01545 18.5883 3.8006 16.7513C3.43137 13.5944 3.43137 10.4052 3.8006 7.2483C4.01545 5.41134 5.49035 3.9727 7.31673 3.76858ZM16.5166 5.25929C13.5398 4.92659 10.4602 4.92659 7.48334 5.25929C6.33891 5.3872 5.42286 6.29045 5.29045 7.42255C4.93476 10.4637 4.93476 13.5359 5.29045 16.5771C5.42286 17.7092 6.33891 18.6124 7.48334 18.7404C10.4602 19.0731 13.5398 19.0731 16.5166 18.7404C17.6611 18.6124 18.5771 17.7092 18.7095 16.5771C19.0652 13.5359 19.0652 10.4637 18.7095 7.42256C18.5771 6.29045 17.6611 5.3872 16.5166 5.25929Z" fill="#EA4334"/>
</svg>
